<mxfile host="Electron" modified="2024-05-03T09:09:16.818Z" agent="Mozilla/5.0 (Windows NT 10.0; Win64; x64) AppleWebKit/537.36 (KHTML, like Gecko) draw.io/24.2.5 Chrome/120.0.6099.109 Electron/28.1.0 Safari/537.36" etag="ZF3fa5EpSUytYpesL8Tk" version="24.2.5" type="device">
  <diagram id="C5RBs43oDa-KdzZeNtuy" name="Page-1">
    <mxGraphModel dx="1434" dy="844" grid="1" gridSize="10" guides="1" tooltips="1" connect="1" arrows="1" fold="1" page="1" pageScale="1" pageWidth="827" pageHeight="1169" math="0" shadow="0">
      <root>
        <mxCell id="WIyWlLk6GJQsqaUBKTNV-0" />
        <mxCell id="WIyWlLk6GJQsqaUBKTNV-1" parent="WIyWlLk6GJQsqaUBKTNV-0" />
        <mxCell id="OktUmOTrR6Y1gaByH8G2-2" style="edgeStyle=orthogonalEdgeStyle;rounded=0;orthogonalLoop=1;jettySize=auto;html=1;entryX=0.5;entryY=0;entryDx=0;entryDy=0;" parent="WIyWlLk6GJQsqaUBKTNV-1" source="0CLc59LkIKmxqNBZDnAn-2" target="0CLc59LkIKmxqNBZDnAn-12" edge="1">
          <mxGeometry relative="1" as="geometry" />
        </mxCell>
        <mxCell id="0CLc59LkIKmxqNBZDnAn-2" value="Player makes a move" style="strokeWidth=2;html=1;shape=mxgraph.flowchart.terminator;whiteSpace=wrap;" parent="WIyWlLk6GJQsqaUBKTNV-1" vertex="1">
          <mxGeometry x="330" y="30" width="140" height="60" as="geometry" />
        </mxCell>
        <mxCell id="OktUmOTrR6Y1gaByH8G2-22" value="" style="edgeStyle=orthogonalEdgeStyle;rounded=0;orthogonalLoop=1;jettySize=auto;html=1;" parent="WIyWlLk6GJQsqaUBKTNV-1" source="0CLc59LkIKmxqNBZDnAn-12" target="OktUmOTrR6Y1gaByH8G2-3" edge="1">
          <mxGeometry relative="1" as="geometry" />
        </mxCell>
        <mxCell id="OKUEpmfSzUru1oPuRXI0-3" style="edgeStyle=orthogonalEdgeStyle;rounded=0;orthogonalLoop=1;jettySize=auto;html=1;" parent="WIyWlLk6GJQsqaUBKTNV-1" source="0CLc59LkIKmxqNBZDnAn-12" edge="1">
          <mxGeometry relative="1" as="geometry">
            <mxPoint x="400" y="820" as="targetPoint" />
            <Array as="points">
              <mxPoint x="611" y="195" />
            </Array>
          </mxGeometry>
        </mxCell>
        <mxCell id="0CLc59LkIKmxqNBZDnAn-12" value="Has the players king moved?" style="rhombus;whiteSpace=wrap;html=1;rounded=0;" parent="WIyWlLk6GJQsqaUBKTNV-1" vertex="1">
          <mxGeometry x="330" y="140" width="140" height="110" as="geometry" />
        </mxCell>
        <mxCell id="0CLc59LkIKmxqNBZDnAn-19" value="End of process" style="strokeWidth=2;html=1;shape=mxgraph.flowchart.terminator;whiteSpace=wrap;" parent="WIyWlLk6GJQsqaUBKTNV-1" vertex="1">
          <mxGeometry x="331" y="1380" width="138" height="60" as="geometry" />
        </mxCell>
        <mxCell id="OktUmOTrR6Y1gaByH8G2-7" style="edgeStyle=orthogonalEdgeStyle;rounded=0;orthogonalLoop=1;jettySize=auto;html=1;entryX=0.5;entryY=0;entryDx=0;entryDy=0;" parent="WIyWlLk6GJQsqaUBKTNV-1" source="OktUmOTrR6Y1gaByH8G2-3" target="OktUmOTrR6Y1gaByH8G2-5" edge="1">
          <mxGeometry relative="1" as="geometry" />
        </mxCell>
        <mxCell id="OKUEpmfSzUru1oPuRXI0-4" style="edgeStyle=orthogonalEdgeStyle;rounded=0;orthogonalLoop=1;jettySize=auto;html=1;" parent="WIyWlLk6GJQsqaUBKTNV-1" source="OktUmOTrR6Y1gaByH8G2-3" edge="1">
          <mxGeometry relative="1" as="geometry">
            <mxPoint x="610" y="355" as="targetPoint" />
          </mxGeometry>
        </mxCell>
        <mxCell id="OktUmOTrR6Y1gaByH8G2-3" value="Has the players rook moved?" style="rhombus;whiteSpace=wrap;html=1;rounded=0;" parent="WIyWlLk6GJQsqaUBKTNV-1" vertex="1">
          <mxGeometry x="330" y="300" width="140" height="110" as="geometry" />
        </mxCell>
        <mxCell id="OktUmOTrR6Y1gaByH8G2-8" style="edgeStyle=orthogonalEdgeStyle;rounded=0;orthogonalLoop=1;jettySize=auto;html=1;entryX=0.5;entryY=0;entryDx=0;entryDy=0;" parent="WIyWlLk6GJQsqaUBKTNV-1" source="OktUmOTrR6Y1gaByH8G2-5" target="OktUmOTrR6Y1gaByH8G2-6" edge="1">
          <mxGeometry relative="1" as="geometry" />
        </mxCell>
        <mxCell id="OKUEpmfSzUru1oPuRXI0-5" style="edgeStyle=orthogonalEdgeStyle;rounded=0;orthogonalLoop=1;jettySize=auto;html=1;" parent="WIyWlLk6GJQsqaUBKTNV-1" source="OktUmOTrR6Y1gaByH8G2-5" edge="1">
          <mxGeometry relative="1" as="geometry">
            <mxPoint x="610" y="495" as="targetPoint" />
          </mxGeometry>
        </mxCell>
        <mxCell id="OktUmOTrR6Y1gaByH8G2-5" value="Are the squares between the king and the rook empty?" style="rhombus;whiteSpace=wrap;html=1;rounded=0;" parent="WIyWlLk6GJQsqaUBKTNV-1" vertex="1">
          <mxGeometry x="330" y="440" width="140" height="110" as="geometry" />
        </mxCell>
        <mxCell id="OktUmOTrR6Y1gaByH8G2-10" value="" style="edgeStyle=orthogonalEdgeStyle;rounded=0;orthogonalLoop=1;jettySize=auto;html=1;" parent="WIyWlLk6GJQsqaUBKTNV-1" source="OktUmOTrR6Y1gaByH8G2-6" target="OktUmOTrR6Y1gaByH8G2-9" edge="1">
          <mxGeometry relative="1" as="geometry" />
        </mxCell>
        <mxCell id="OKUEpmfSzUru1oPuRXI0-6" style="edgeStyle=orthogonalEdgeStyle;rounded=0;orthogonalLoop=1;jettySize=auto;html=1;" parent="WIyWlLk6GJQsqaUBKTNV-1" source="OktUmOTrR6Y1gaByH8G2-6" edge="1">
          <mxGeometry relative="1" as="geometry">
            <mxPoint x="610" y="640" as="targetPoint" />
          </mxGeometry>
        </mxCell>
        <mxCell id="OktUmOTrR6Y1gaByH8G2-6" value="Is an enemy piece attacking one of the empty squares?" style="rhombus;whiteSpace=wrap;html=1;rounded=0;" parent="WIyWlLk6GJQsqaUBKTNV-1" vertex="1">
          <mxGeometry x="330" y="585" width="140" height="110" as="geometry" />
        </mxCell>
        <mxCell id="OktUmOTrR6Y1gaByH8G2-12" style="edgeStyle=orthogonalEdgeStyle;rounded=0;orthogonalLoop=1;jettySize=auto;html=1;entryX=0.5;entryY=0;entryDx=0;entryDy=0;" parent="WIyWlLk6GJQsqaUBKTNV-1" source="OktUmOTrR6Y1gaByH8G2-9" target="OktUmOTrR6Y1gaByH8G2-11" edge="1">
          <mxGeometry relative="1" as="geometry" />
        </mxCell>
        <mxCell id="OktUmOTrR6Y1gaByH8G2-9" value="The player can castle" style="whiteSpace=wrap;html=1;rounded=0;" parent="WIyWlLk6GJQsqaUBKTNV-1" vertex="1">
          <mxGeometry x="340" y="740" width="120" height="60" as="geometry" />
        </mxCell>
        <mxCell id="OktUmOTrR6Y1gaByH8G2-16" style="edgeStyle=orthogonalEdgeStyle;rounded=0;orthogonalLoop=1;jettySize=auto;html=1;entryX=0.5;entryY=0;entryDx=0;entryDy=0;" parent="WIyWlLk6GJQsqaUBKTNV-1" source="OktUmOTrR6Y1gaByH8G2-11" target="OktUmOTrR6Y1gaByH8G2-15" edge="1">
          <mxGeometry relative="1" as="geometry" />
        </mxCell>
        <mxCell id="OKUEpmfSzUru1oPuRXI0-13" style="edgeStyle=orthogonalEdgeStyle;rounded=0;orthogonalLoop=1;jettySize=auto;html=1;" parent="WIyWlLk6GJQsqaUBKTNV-1" source="OktUmOTrR6Y1gaByH8G2-11" edge="1">
          <mxGeometry relative="1" as="geometry">
            <mxPoint x="400" y="1360" as="targetPoint" />
            <Array as="points">
              <mxPoint x="610" y="895" />
              <mxPoint x="610" y="1360" />
            </Array>
          </mxGeometry>
        </mxCell>
        <mxCell id="OktUmOTrR6Y1gaByH8G2-11" value="Is the pawn 2 squares away from the opponents starting pawn row?" style="rhombus;whiteSpace=wrap;html=1;rounded=0;" parent="WIyWlLk6GJQsqaUBKTNV-1" vertex="1">
          <mxGeometry x="330" y="840" width="140" height="110" as="geometry" />
        </mxCell>
        <mxCell id="OktUmOTrR6Y1gaByH8G2-18" style="edgeStyle=orthogonalEdgeStyle;rounded=0;orthogonalLoop=1;jettySize=auto;html=1;" parent="WIyWlLk6GJQsqaUBKTNV-1" source="OktUmOTrR6Y1gaByH8G2-15" target="OktUmOTrR6Y1gaByH8G2-17" edge="1">
          <mxGeometry relative="1" as="geometry" />
        </mxCell>
        <mxCell id="OKUEpmfSzUru1oPuRXI0-14" style="edgeStyle=orthogonalEdgeStyle;rounded=0;orthogonalLoop=1;jettySize=auto;html=1;" parent="WIyWlLk6GJQsqaUBKTNV-1" source="OktUmOTrR6Y1gaByH8G2-15" edge="1">
          <mxGeometry relative="1" as="geometry">
            <mxPoint x="610" y="1045" as="targetPoint" />
          </mxGeometry>
        </mxCell>
        <mxCell id="OktUmOTrR6Y1gaByH8G2-15" value="Are there any enemy pawns adjacent to the pawn?" style="rhombus;whiteSpace=wrap;html=1;rounded=0;" parent="WIyWlLk6GJQsqaUBKTNV-1" vertex="1">
          <mxGeometry x="330" y="990" width="140" height="110" as="geometry" />
        </mxCell>
        <mxCell id="OktUmOTrR6Y1gaByH8G2-20" value="" style="edgeStyle=orthogonalEdgeStyle;rounded=0;orthogonalLoop=1;jettySize=auto;html=1;" parent="WIyWlLk6GJQsqaUBKTNV-1" source="OktUmOTrR6Y1gaByH8G2-17" target="OktUmOTrR6Y1gaByH8G2-19" edge="1">
          <mxGeometry relative="1" as="geometry" />
        </mxCell>
        <mxCell id="OKUEpmfSzUru1oPuRXI0-15" style="edgeStyle=orthogonalEdgeStyle;rounded=0;orthogonalLoop=1;jettySize=auto;html=1;" parent="WIyWlLk6GJQsqaUBKTNV-1" source="OktUmOTrR6Y1gaByH8G2-17" edge="1">
          <mxGeometry relative="1" as="geometry">
            <mxPoint x="610" y="1185" as="targetPoint" />
          </mxGeometry>
        </mxCell>
        <mxCell id="OktUmOTrR6Y1gaByH8G2-17" value="Was the enemy pawn moved on the previous turn?&amp;nbsp;" style="rhombus;whiteSpace=wrap;html=1;rounded=0;" parent="WIyWlLk6GJQsqaUBKTNV-1" vertex="1">
          <mxGeometry x="330" y="1130" width="140" height="110" as="geometry" />
        </mxCell>
        <mxCell id="OktUmOTrR6Y1gaByH8G2-19" value="Pawn can En passant" style="whiteSpace=wrap;html=1;rounded=0;" parent="WIyWlLk6GJQsqaUBKTNV-1" vertex="1">
          <mxGeometry x="340" y="1280" width="120" height="60" as="geometry" />
        </mxCell>
        <mxCell id="OktUmOTrR6Y1gaByH8G2-21" style="edgeStyle=orthogonalEdgeStyle;rounded=0;orthogonalLoop=1;jettySize=auto;html=1;entryX=0.5;entryY=0;entryDx=0;entryDy=0;entryPerimeter=0;" parent="WIyWlLk6GJQsqaUBKTNV-1" source="OktUmOTrR6Y1gaByH8G2-19" target="0CLc59LkIKmxqNBZDnAn-19" edge="1">
          <mxGeometry relative="1" as="geometry" />
        </mxCell>
        <mxCell id="OKUEpmfSzUru1oPuRXI0-0" value="Yes" style="text;html=1;align=center;verticalAlign=middle;whiteSpace=wrap;rounded=0;" parent="WIyWlLk6GJQsqaUBKTNV-1" vertex="1">
          <mxGeometry x="469" y="175" width="30" height="20" as="geometry" />
        </mxCell>
        <mxCell id="OKUEpmfSzUru1oPuRXI0-2" value="No" style="text;html=1;align=center;verticalAlign=middle;whiteSpace=wrap;rounded=0;" parent="WIyWlLk6GJQsqaUBKTNV-1" vertex="1">
          <mxGeometry x="399" y="250" width="30" height="20" as="geometry" />
        </mxCell>
        <mxCell id="OKUEpmfSzUru1oPuRXI0-7" value="Yes" style="text;html=1;align=center;verticalAlign=middle;whiteSpace=wrap;rounded=0;" parent="WIyWlLk6GJQsqaUBKTNV-1" vertex="1">
          <mxGeometry x="470" y="335" width="30" height="20" as="geometry" />
        </mxCell>
        <mxCell id="OKUEpmfSzUru1oPuRXI0-8" value="No" style="text;html=1;align=center;verticalAlign=middle;whiteSpace=wrap;rounded=0;" parent="WIyWlLk6GJQsqaUBKTNV-1" vertex="1">
          <mxGeometry x="399" y="410" width="30" height="20" as="geometry" />
        </mxCell>
        <mxCell id="OKUEpmfSzUru1oPuRXI0-9" value="Yes" style="text;html=1;align=center;verticalAlign=middle;whiteSpace=wrap;rounded=0;" parent="WIyWlLk6GJQsqaUBKTNV-1" vertex="1">
          <mxGeometry x="399" y="550" width="30" height="20" as="geometry" />
        </mxCell>
        <mxCell id="OKUEpmfSzUru1oPuRXI0-10" value="No" style="text;html=1;align=center;verticalAlign=middle;whiteSpace=wrap;rounded=0;" parent="WIyWlLk6GJQsqaUBKTNV-1" vertex="1">
          <mxGeometry x="469" y="475" width="30" height="20" as="geometry" />
        </mxCell>
        <mxCell id="OKUEpmfSzUru1oPuRXI0-11" value="Yes" style="text;html=1;align=center;verticalAlign=middle;whiteSpace=wrap;rounded=0;" parent="WIyWlLk6GJQsqaUBKTNV-1" vertex="1">
          <mxGeometry x="470" y="620" width="30" height="20" as="geometry" />
        </mxCell>
        <mxCell id="OKUEpmfSzUru1oPuRXI0-12" value="No" style="text;html=1;align=center;verticalAlign=middle;whiteSpace=wrap;rounded=0;" parent="WIyWlLk6GJQsqaUBKTNV-1" vertex="1">
          <mxGeometry x="399" y="695" width="30" height="20" as="geometry" />
        </mxCell>
        <mxCell id="OKUEpmfSzUru1oPuRXI0-16" value="Yes" style="text;html=1;align=center;verticalAlign=middle;whiteSpace=wrap;rounded=0;" parent="WIyWlLk6GJQsqaUBKTNV-1" vertex="1">
          <mxGeometry x="399" y="950" width="30" height="20" as="geometry" />
        </mxCell>
        <mxCell id="OKUEpmfSzUru1oPuRXI0-17" value="No" style="text;html=1;align=center;verticalAlign=middle;whiteSpace=wrap;rounded=0;" parent="WIyWlLk6GJQsqaUBKTNV-1" vertex="1">
          <mxGeometry x="470" y="875" width="30" height="20" as="geometry" />
        </mxCell>
        <mxCell id="OKUEpmfSzUru1oPuRXI0-18" value="Yes" style="text;html=1;align=center;verticalAlign=middle;whiteSpace=wrap;rounded=0;" parent="WIyWlLk6GJQsqaUBKTNV-1" vertex="1">
          <mxGeometry x="399" y="1100" width="30" height="20" as="geometry" />
        </mxCell>
        <mxCell id="OKUEpmfSzUru1oPuRXI0-19" value="No" style="text;html=1;align=center;verticalAlign=middle;whiteSpace=wrap;rounded=0;" parent="WIyWlLk6GJQsqaUBKTNV-1" vertex="1">
          <mxGeometry x="469" y="1024" width="30" height="20" as="geometry" />
        </mxCell>
        <mxCell id="OKUEpmfSzUru1oPuRXI0-20" value="Yes" style="text;html=1;align=center;verticalAlign=middle;whiteSpace=wrap;rounded=0;" parent="WIyWlLk6GJQsqaUBKTNV-1" vertex="1">
          <mxGeometry x="399" y="1240" width="30" height="20" as="geometry" />
        </mxCell>
        <mxCell id="OKUEpmfSzUru1oPuRXI0-21" value="No" style="text;html=1;align=center;verticalAlign=middle;whiteSpace=wrap;rounded=0;" parent="WIyWlLk6GJQsqaUBKTNV-1" vertex="1">
          <mxGeometry x="470" y="1165" width="30" height="20" as="geometry" />
        </mxCell>
        <mxCell id="w8taad4scafsNaKOQgKd-0" value="&lt;b&gt;TPI - Unity chess game&lt;/b&gt;&lt;div style=&quot;font-size: 11px;&quot;&gt;&lt;font style=&quot;font-size: 11px;&quot;&gt;By: Arthur Bottemanne&lt;/font&gt;&lt;/div&gt;&lt;div style=&quot;font-size: 11px;&quot;&gt;&lt;font style=&quot;font-size: 11px;&quot;&gt;Date: 03.05.2024&lt;/font&gt;&lt;/div&gt;&lt;div style=&quot;font-size: 11px;&quot;&gt;&lt;font style=&quot;font-size: 11px;&quot;&gt;Description: Flow diagram represeting how the special moves in chess are checked if they can be done&lt;/font&gt;&lt;/div&gt;" style="rounded=0;whiteSpace=wrap;html=1;" vertex="1" parent="WIyWlLk6GJQsqaUBKTNV-1">
          <mxGeometry x="120" y="1340" width="190" height="90" as="geometry" />
        </mxCell>
      </root>
    </mxGraphModel>
  </diagram>
</mxfile>
